<svg width="20" height="21" viewBox="0 0 20 21" fill="none" xmlns="http://www.w3.org/2000/svg">
<g clip-path="url(#clip0_37_5133)">
<g clip-path="url(#clip1_37_5133)">
<g clip-path="url(#clip2_37_5133)">
<mask id="mask0_37_5133" style="mask-type:luminance" maskUnits="userSpaceOnUse" x="0" y="0" width="20" height="21">
<path d="M20 0.599609H0V20.5996H20V0.599609Z" fill="white"/>
</mask>
<g mask="url(#mask0_37_5133)">
<path d="M4.07569 13.8943C6.04834 16.2523 8.42297 18.1089 11.1333 19.4226C12.1652 19.9117 13.5452 20.4919 15.0827 20.5913C15.1781 20.5955 15.2692 20.5996 15.3645 20.5996C16.3965 20.5996 17.2253 20.2432 17.9008 19.5097C17.9049 19.5055 17.9132 19.4972 17.9174 19.4889C18.1577 19.1989 18.4313 18.9378 18.7172 18.6601C18.912 18.4736 19.1109 18.2788 19.3015 18.0799C20.1843 17.1599 20.1843 15.9912 19.2933 15.1002L16.8026 12.6095C16.3799 12.1703 15.8743 11.9382 15.3438 11.9382C14.8134 11.9382 14.3036 12.1703 13.8685 12.6054L12.3848 14.089C12.2481 14.0103 12.1072 13.9398 11.9746 13.8735C11.8088 13.7906 11.6555 13.7119 11.5187 13.6249C10.1677 12.767 8.941 11.6481 7.76819 10.21C7.17557 9.45995 6.77772 8.83003 6.50006 8.18768C6.88961 7.83542 7.25431 7.46658 7.60656 7.10603C7.73089 6.97756 7.85936 6.84909 7.98783 6.72062C8.43541 6.27305 8.67577 5.75502 8.67577 5.2287C8.67577 4.70239 8.43955 4.18436 7.98783 3.73678L6.75286 2.50181C6.60781 2.35676 6.47105 2.21586 6.33014 2.07081C6.05663 1.789 5.77068 1.49891 5.48887 1.23782C5.06201 0.819253 4.56056 0.599609 4.0301 0.599609C3.50379 0.599609 2.99819 0.819253 2.55476 1.24196L1.00482 2.7919C0.44121 3.35552 0.122105 4.03931 0.055798 4.83086C-0.0229422 5.82133 0.159403 6.87396 0.631844 8.14623C1.35708 10.1147 2.45116 11.9423 4.07569 13.8943ZM1.06699 4.91789C1.11672 4.3667 1.32807 3.9067 1.72592 3.50885L3.26757 1.9672C3.50793 1.73513 3.77316 1.61494 4.0301 1.61494C4.2829 1.61494 4.53984 1.73513 4.77606 1.97549C5.05373 2.23243 5.31481 2.50181 5.59662 2.78776C5.73752 2.93281 5.88257 3.07785 6.02762 3.22704L7.26259 4.46202C7.51954 4.71896 7.65215 4.98005 7.65215 5.23699C7.65215 5.49393 7.51954 5.75502 7.26259 6.01196C7.13412 6.14043 7.00565 6.27305 6.87718 6.40152C6.49177 6.79107 6.13122 7.15991 5.73338 7.51217C5.72509 7.52046 5.72094 7.5246 5.71266 7.53289C5.36869 7.87686 5.42256 8.20425 5.50545 8.4529C5.50959 8.46534 5.51373 8.47363 5.51788 8.48606C5.83698 9.25274 6.28041 9.98212 6.9725 10.8524C8.21576 12.3858 9.52534 13.5751 10.9675 14.491C11.1457 14.6071 11.3364 14.6982 11.5146 14.7894C11.6803 14.8723 11.8337 14.951 11.9704 15.0381C11.987 15.0463 11.9994 15.0546 12.016 15.0629C12.1528 15.1334 12.2854 15.1665 12.418 15.1665C12.7495 15.1665 12.965 14.9552 13.0355 14.8847L14.5854 13.3348C14.8258 13.0944 15.0869 12.9659 15.3438 12.9659C15.6588 12.9659 15.9157 13.1607 16.0773 13.3348L18.5763 15.8296C19.0736 16.3269 19.0695 16.8657 18.5639 17.392C18.3898 17.5785 18.2075 17.7567 18.0127 17.9432C17.7226 18.225 17.4201 18.5151 17.1466 18.8425C16.67 19.3563 16.1022 19.5967 15.3687 19.5967C15.2982 19.5967 15.2236 19.5926 15.1532 19.5884C13.7939 19.5014 12.5299 18.9709 11.5809 18.5192C9.00317 17.2718 6.74042 15.5022 4.86309 13.256C3.3173 11.3953 2.2771 9.66302 1.58916 7.80641C1.1623 6.66675 1.00068 5.75087 1.06699 4.91789Z" fill="#D8C29D"/>
</g>
</g>
</g>
</g>
<defs>
<clipPath id="clip0_37_5133">
<rect width="20" height="20" fill="white" transform="translate(0 0.599609)"/>
</clipPath>
<clipPath id="clip1_37_5133">
<rect width="20" height="20" fill="white" transform="translate(0 0.599609)"/>
</clipPath>
<clipPath id="clip2_37_5133">
<rect width="20" height="20" fill="white" transform="translate(0 0.599609)"/>
</clipPath>
</defs>
</svg>
