<svg width="20" height="21" viewBox="0 0 20 21" fill="none" xmlns="http://www.w3.org/2000/svg">
<g clip-path="url(#clip0_37_5125)">
<g clip-path="url(#clip1_37_5125)">
<g clip-path="url(#clip2_37_5125)">
<path d="M10 0.599609C6.12297 0.599609 2.96875 3.75383 2.96875 7.63086C2.96875 8.94078 3.3316 10.2191 4.01832 11.3282L9.59977 20.3226C9.70668 20.4949 9.89504 20.5996 10.0976 20.5996H10.1023C10.3066 20.598 10.4954 20.4901 10.6003 20.3148L16.0395 11.2332C16.6883 10.1476 17.0312 8.90192 17.0312 7.63086C17.0312 3.75383 13.877 0.599609 10 0.599609ZM15.0338 10.6316L10.0887 18.8881L5.01434 10.7108C4.44273 9.78766 4.13281 8.72266 4.13281 7.63086C4.13281 4.4 6.76914 1.76367 10 1.76367C13.2309 1.76367 15.8633 4.4 15.8633 7.63086C15.8633 8.69027 15.5738 9.72805 15.0338 10.6316Z" fill="#D8C29D"/>
<path d="M10 4.11523C8.06148 4.11523 6.48438 5.69234 6.48438 7.63086C6.48438 9.55699 8.03582 11.1465 10 11.1465C11.9884 11.1465 13.5156 9.53582 13.5156 7.63086C13.5156 5.69234 11.9385 4.11523 10 4.11523ZM10 9.98242C8.7009 9.98242 7.64844 8.92645 7.64844 7.63086C7.64844 6.33852 8.70766 5.2793 10 5.2793C11.2923 5.2793 12.3477 6.33852 12.3477 7.63086C12.3477 8.90754 11.3197 9.98242 10 9.98242Z" fill="#D8C29D"/>
</g>
</g>
</g>
<defs>
<clipPath id="clip0_37_5125">
<rect width="20" height="20" fill="white" transform="translate(0 0.599609)"/>
</clipPath>
<clipPath id="clip1_37_5125">
<rect width="20" height="20" fill="white" transform="translate(0 0.599609)"/>
</clipPath>
<clipPath id="clip2_37_5125">
<rect width="20" height="20" fill="white" transform="translate(0 0.599609)"/>
</clipPath>
</defs>
</svg>
