<svg width="20" height="21" viewBox="0 0 20 21" fill="none" xmlns="http://www.w3.org/2000/svg">
<g clip-path="url(#clip0_37_5141)">
<g clip-path="url(#clip1_37_5141)">
<path d="M18.2422 3.56836H1.75781C0.790547 3.56836 0 4.35543 0 5.32617V15.873C0 16.8441 0.791055 17.6308 1.75781 17.6308H18.2422C19.2095 17.6308 20 16.8438 20 15.873V5.32617C20 4.3552 19.2091 3.56836 18.2422 3.56836ZM17.9723 4.74023C17.4039 5.31043 10.7283 12.0078 10.4541 12.283C10.225 12.5127 9.77512 12.5129 9.54594 12.283L2.02773 4.74023H17.9723ZM1.17188 15.6576V5.5416L6.21348 10.5996L1.17188 15.6576ZM2.02773 16.459L7.04078 11.4296L8.71598 13.1103C9.40246 13.799 10.5978 13.7987 11.2841 13.1103L12.9593 11.4296L17.9723 16.459H2.02773ZM18.8281 15.6576L13.7865 10.5996L18.8281 5.5416V15.6576Z" fill="#D8C29D"/>
</g>
</g>
<defs>
<clipPath id="clip0_37_5141">
<rect width="20" height="20" fill="white" transform="translate(0 0.599609)"/>
</clipPath>
<clipPath id="clip1_37_5141">
<rect width="20" height="20" fill="white" transform="translate(0 0.599609)"/>
</clipPath>
</defs>
</svg>
