<svg width="32" height="32" viewBox="0 0 32 32" fill="none" xmlns="http://www.w3.org/2000/svg">
<circle cx="16" cy="16.001" r="15.75" transform="rotate(-180 16 16.001)" stroke="#101010" stroke-width="0.5"/>
<path d="M11 15.501C10.7239 15.501 10.5 15.7248 10.5 16.001C10.5 16.2771 10.7239 16.501 11 16.501V15.501ZM20.3536 16.3545C20.5488 16.1593 20.5488 15.8427 20.3536 15.6474L17.1716 12.4654C16.9763 12.2702 16.6597 12.2702 16.4645 12.4654C16.2692 12.6607 16.2692 12.9773 16.4645 13.1725L19.2929 16.001L16.4645 18.8294C16.2692 19.0247 16.2692 19.3412 16.4645 19.5365C16.6597 19.7318 16.9763 19.7318 17.1716 19.5365L20.3536 16.3545ZM11 16.001V16.501L20 16.501V16.001V15.501L11 15.501V16.001Z" fill="black"/>
</svg>
