<svg width="32" height="32" viewBox="0 0 32 32" fill="none" xmlns="http://www.w3.org/2000/svg">
<circle cx="16" cy="16.001" r="15.75" stroke="#101010" stroke-width="0.5"/>
<path d="M21 16.501C21.2761 16.501 21.5 16.2771 21.5 16.001C21.5 15.7248 21.2761 15.501 21 15.501V16.501ZM11.6464 15.6474C11.4512 15.8427 11.4512 16.1593 11.6464 16.3545L14.8284 19.5365C15.0237 19.7318 15.3403 19.7318 15.5355 19.5365C15.7308 19.3412 15.7308 19.0247 15.5355 18.8294L12.7071 16.001L15.5355 13.1725C15.7308 12.9773 15.7308 12.6607 15.5355 12.4654C15.3403 12.2702 15.0237 12.2702 14.8284 12.4654L11.6464 15.6474ZM21 16.001V15.501L12 15.501V16.001V16.501H21V16.001Z" fill="black"/>
</svg>
